<svg xmlns="http://www.w3.org/2000/svg" width="481" height="126" viewBox="0 0 481 126" version="1.1"><path d="M 31.235 21.125 L 6.969 35.210 7.235 63.288 L 7.500 91.367 28 103.252 C 39.275 109.788, 50.126 116.055, 52.114 117.176 L 55.729 119.216 79.866 105.358 L 104.004 91.500 103.752 63.057 L 103.500 34.614 79.598 20.807 C 66.451 13.213, 55.651 7.009, 55.598 7.020 C 55.544 7.031, 44.581 13.378, 31.235 21.125 M 303 35.682 C 296.533 39.041, 295.500 42.874, 295.500 63.500 C 295.500 79.500, 295.722 81.944, 297.500 85.500 C 300.163 90.826, 303.744 92.412, 312.756 92.256 C 324.868 92.047, 324 93.426, 324 74.387 L 324 57.909 317.250 58.204 L 310.500 58.500 310.201 63.120 C 309.944 67.072, 310.198 67.818, 311.951 68.277 C 313.755 68.749, 314 69.601, 314 75.406 L 314 82 311.019 82 C 306.985 82, 306.493 79.837, 306.528 62.257 C 306.563 44.852, 306.602 44.787, 316.878 44.883 L 324 44.950 324 40.534 C 324 38.105, 323.521 35.822, 322.935 35.460 C 322.350 35.098, 318.412 34.591, 314.185 34.333 C 308.051 33.959, 305.793 34.231, 303 35.682 M 142 63.500 L 142 92 152.050 92 C 163.675 92, 166.912 90.812, 169.365 85.643 C 172.817 78.369, 170.724 64.999, 165.893 63.466 C 164.466 63.013, 164.632 62.521, 167.016 60.138 C 171.014 56.140, 171.976 47.996, 169.194 41.706 C 168.091 39.212, 166.275 36.683, 165.160 36.086 C 164.044 35.488, 158.377 35, 152.566 35 L 142 35 142 63.500 M 192.179 59.250 C 192.678 90.767, 193.340 92.227, 207.190 92.354 C 220.532 92.476, 221.803 89.448, 221.920 57.250 L 222 35 216.018 35 L 210.037 35 209.768 58.250 L 209.500 81.500 207 81.500 L 204.500 81.500 204.232 58.250 L 203.963 35 197.879 35 L 191.795 35 192.179 59.250 M 245 63.500 L 245 92 254.032 92 C 265.328 92, 269.495 90.452, 271.571 85.484 C 273.559 80.727, 274.504 58.833, 273.167 48.504 C 272.258 41.478, 271.758 40.173, 269.051 37.754 C 266.103 35.120, 265.512 35, 255.484 35 L 245 35 245 63.500 M 346.234 63.250 L 346.500 91.500 358.303 91.782 L 370.107 92.064 369.803 86.782 L 369.500 81.500 363.750 81.200 L 358 80.900 358 74.450 L 358 68 363 68 L 368 68 368 63 L 368 58 363 58 L 358 58 358 51.500 L 358 45 364 45 L 370 45 370 40 L 370 35 357.984 35 L 345.969 35 346.234 63.250 M 392.120 44.704 C 398.302 65.238, 398.097 61.859, 393.982 75.407 C 391.962 82.058, 389.984 88.513, 389.587 89.750 C 388.894 91.911, 389.099 92, 394.775 92 L 400.684 92 403.085 81.543 C 404.405 75.791, 405.765 71.404, 406.107 71.793 C 406.449 72.182, 407.722 76.888, 408.936 82.250 L 411.144 92 417.072 92 C 420.332 92, 423 91.745, 423 91.432 C 423 91.120, 421.200 84.905, 419 77.620 C 416.800 70.335, 415 63.566, 415 62.577 C 415 61.182, 419.167 46.614, 422.531 36.250 C 422.825 35.346, 421.310 35, 417.051 35 L 411.164 35 408.984 44.569 C 407.785 49.832, 406.580 53.914, 406.306 53.640 C 406.032 53.366, 404.812 49.172, 403.595 44.321 L 401.381 35.500 395.276 35.204 L 389.170 34.909 392.120 44.704 M 441 40 L 441 45 445 45 L 449 45 449 68.500 L 449 92 455 92 L 461 92 461 68.500 L 461 45 465 45 L 469 45 469 40 L 469 35 455 35 L 441 35 441 40 M 45.206 40.500 C 41.193 46.833, 40.931 52.021, 44.444 55.535 C 47.332 58.423, 49.462 57.941, 51.537 53.928 C 53.416 50.294, 53.379 48.629, 51.333 44.700 C 50.416 42.940, 49.375 40.150, 49.020 38.500 L 48.374 35.500 45.206 40.500 M 64.462 39.149 C 64.056 40.442, 62.887 42.573, 61.862 43.885 C 59.278 47.194, 59.359 54.110, 62.010 56.509 C 63.962 58.276, 64.093 58.261, 66.495 56.005 C 69.874 52.830, 70.529 48.395, 68.423 42.953 C 66.152 37.087, 65.350 36.316, 64.462 39.149 M 153 51.434 C 153 57.788, 153.081 58, 155.525 58 C 158.808 58, 160.533 53.934, 159.344 49 C 158.664 46.181, 157.965 45.438, 155.750 45.184 L 153 44.867 153 51.434 M 256 63.066 L 256 81.133 258.750 80.816 L 261.500 80.500 261.775 64.133 C 262.062 47.105, 261.633 45, 257.878 45 C 256.110 45, 256 46.059, 256 63.066 M 30.171 55.652 C 28.629 61.414, 28.693 63.506, 30.518 67.035 C 33.648 73.088, 40 71.552, 40 64.743 C 40 61.135, 38.640 58.574, 34.557 54.490 L 31.341 51.275 30.171 55.652 M 77.500 55.229 C 72.436 60.244, 70.851 64.841, 72.607 69.418 C 74.152 73.445, 83 68.035, 83 63.063 C 83 59.476, 81.711 52.004, 81.114 52.129 C 80.776 52.199, 79.150 53.594, 77.500 55.229 M 50.128 59.229 C 46.834 60.876, 36 75.718, 36 78.584 C 36 81.539, 41.034 87.357, 45.020 89.008 C 47.441 90.011, 49.223 90.014, 53.898 89.022 C 58.396 88.067, 60.982 88.045, 65.088 88.925 C 69.821 89.940, 70.710 89.861, 72.902 88.224 C 76.830 85.291, 79.285 81.454, 78.567 79.370 C 78.213 78.342, 74.003 73.345, 69.211 68.266 C 61.591 60.190, 59.999 58.971, 56.500 58.538 C 54.300 58.265, 51.433 58.576, 50.128 59.229 M 153 74.434 L 153 81 155.955 81 C 158.531 81, 158.992 80.559, 159.556 77.554 C 160.515 72.441, 158.909 68.567, 155.673 68.184 C 153.015 67.869, 153 67.904, 153 74.434" stroke="none" fill="#0b6431" fill-rule="evenodd"/><path d="M 0 63.002 L 0 126.004 240.750 125.752 L 481.500 125.500 481.758 62.750 L 482.015 0 241.008 0 L 0 0 0 63.002 M 0.471 63.500 C 0.471 98.150, 0.596 112.180, 0.750 94.678 C 0.903 77.175, 0.903 48.825, 0.749 31.678 C 0.596 14.530, 0.471 28.850, 0.471 63.500 M 31.235 21.125 L 6.969 35.210 7.235 63.288 L 7.500 91.367 28 103.252 C 39.275 109.788, 50.126 116.055, 52.114 117.176 L 55.729 119.216 79.866 105.358 L 104.004 91.500 103.752 63.057 L 103.500 34.614 79.598 20.807 C 66.451 13.213, 55.651 7.009, 55.598 7.020 C 55.544 7.031, 44.581 13.378, 31.235 21.125 M 303 35.682 C 296.533 39.041, 295.500 42.874, 295.500 63.500 C 295.500 79.500, 295.722 81.944, 297.500 85.500 C 300.163 90.826, 303.744 92.412, 312.756 92.256 C 324.868 92.047, 324 93.426, 324 74.387 L 324 57.909 317.250 58.204 L 310.500 58.500 310.201 63.120 C 309.944 67.072, 310.198 67.818, 311.951 68.277 C 313.755 68.749, 314 69.601, 314 75.406 L 314 82 311.019 82 C 306.985 82, 306.493 79.837, 306.528 62.257 C 306.563 44.852, 306.602 44.787, 316.878 44.883 L 324 44.950 324 40.534 C 324 38.105, 323.521 35.822, 322.935 35.460 C 322.350 35.098, 318.412 34.591, 314.185 34.333 C 308.051 33.959, 305.793 34.231, 303 35.682 M 142 63.500 L 142 92 152.050 92 C 163.675 92, 166.912 90.812, 169.365 85.643 C 172.817 78.369, 170.724 64.999, 165.893 63.466 C 164.466 63.013, 164.632 62.521, 167.016 60.138 C 171.014 56.140, 171.976 47.996, 169.194 41.706 C 168.091 39.212, 166.275 36.683, 165.160 36.086 C 164.044 35.488, 158.377 35, 152.566 35 L 142 35 142 63.500 M 192.179 59.250 C 192.678 90.767, 193.340 92.227, 207.190 92.354 C 220.532 92.476, 221.803 89.448, 221.920 57.250 L 222 35 216.018 35 L 210.037 35 209.768 58.250 L 209.500 81.500 207 81.500 L 204.500 81.500 204.232 58.250 L 203.963 35 197.879 35 L 191.795 35 192.179 59.250 M 245 63.500 L 245 92 254.032 92 C 265.328 92, 269.495 90.452, 271.571 85.484 C 273.559 80.727, 274.504 58.833, 273.167 48.504 C 272.258 41.478, 271.758 40.173, 269.051 37.754 C 266.103 35.120, 265.512 35, 255.484 35 L 245 35 245 63.500 M 346.234 63.250 L 346.500 91.500 358.303 91.782 L 370.107 92.064 369.803 86.782 L 369.500 81.500 363.750 81.200 L 358 80.900 358 74.450 L 358 68 363 68 L 368 68 368 63 L 368 58 363 58 L 358 58 358 51.500 L 358 45 364 45 L 370 45 370 40 L 370 35 357.984 35 L 345.969 35 346.234 63.250 M 392.120 44.704 C 398.302 65.238, 398.097 61.859, 393.982 75.407 C 391.962 82.058, 389.984 88.513, 389.587 89.750 C 388.894 91.911, 389.099 92, 394.775 92 L 400.684 92 403.085 81.543 C 404.405 75.791, 405.765 71.404, 406.107 71.793 C 406.449 72.182, 407.722 76.888, 408.936 82.250 L 411.144 92 417.072 92 C 420.332 92, 423 91.745, 423 91.432 C 423 91.120, 421.200 84.905, 419 77.620 C 416.800 70.335, 415 63.566, 415 62.577 C 415 61.182, 419.167 46.614, 422.531 36.250 C 422.825 35.346, 421.310 35, 417.051 35 L 411.164 35 408.984 44.569 C 407.785 49.832, 406.580 53.914, 406.306 53.640 C 406.032 53.366, 404.812 49.172, 403.595 44.321 L 401.381 35.500 395.276 35.204 L 389.170 34.909 392.120 44.704 M 441 40 L 441 45 445 45 L 449 45 449 68.500 L 449 92 455 92 L 461 92 461 68.500 L 461 45 465 45 L 469 45 469 40 L 469 35 455 35 L 441 35 441 40 M 45.206 40.500 C 41.193 46.833, 40.931 52.021, 44.444 55.535 C 47.332 58.423, 49.462 57.941, 51.537 53.928 C 53.416 50.294, 53.379 48.629, 51.333 44.700 C 50.416 42.940, 49.375 40.150, 49.020 38.500 L 48.374 35.500 45.206 40.500 M 64.462 39.149 C 64.056 40.442, 62.887 42.573, 61.862 43.885 C 59.278 47.194, 59.359 54.110, 62.010 56.509 C 63.962 58.276, 64.093 58.261, 66.495 56.005 C 69.874 52.830, 70.529 48.395, 68.423 42.953 C 66.152 37.087, 65.350 36.316, 64.462 39.149 M 153 51.434 C 153 57.788, 153.081 58, 155.525 58 C 158.808 58, 160.533 53.934, 159.344 49 C 158.664 46.181, 157.965 45.438, 155.750 45.184 L 153 44.867 153 51.434 M 256 63.066 L 256 81.133 258.750 80.816 L 261.500 80.500 261.775 64.133 C 262.062 47.105, 261.633 45, 257.878 45 C 256.110 45, 256 46.059, 256 63.066 M 30.171 55.652 C 28.629 61.414, 28.693 63.506, 30.518 67.035 C 33.648 73.088, 40 71.552, 40 64.743 C 40 61.135, 38.640 58.574, 34.557 54.490 L 31.341 51.275 30.171 55.652 M 77.500 55.229 C 72.436 60.244, 70.851 64.841, 72.607 69.418 C 74.152 73.445, 83 68.035, 83 63.063 C 83 59.476, 81.711 52.004, 81.114 52.129 C 80.776 52.199, 79.150 53.594, 77.500 55.229 M 50.128 59.229 C 46.834 60.876, 36 75.718, 36 78.584 C 36 81.539, 41.034 87.357, 45.020 89.008 C 47.441 90.011, 49.223 90.014, 53.898 89.022 C 58.396 88.067, 60.982 88.045, 65.088 88.925 C 69.821 89.940, 70.710 89.861, 72.902 88.224 C 76.830 85.291, 79.285 81.454, 78.567 79.370 C 78.213 78.342, 74.003 73.345, 69.211 68.266 C 61.591 60.190, 59.999 58.971, 56.500 58.538 C 54.300 58.265, 51.433 58.576, 50.128 59.229 M 153 74.434 L 153 81 155.955 81 C 158.531 81, 158.992 80.559, 159.556 77.554 C 160.515 72.441, 158.909 68.567, 155.673 68.184 C 153.015 67.869, 153 67.904, 153 74.434" stroke="none" fill="#fafbfa" fill-rule="evenodd"/></svg>